<?xml version="1.0" encoding="utf-8"?>
<svg version="1.1" id="Calque_1" xmlns="http://www.w3.org/2000/svg" viewBox="0 0 512 512" enable-background="new 0 0 256 256" xml:space="preserve">
     <rect width="512" height="512" fill="#242938" rx="120"/>
<g>
	
		<linearGradient id="SVGID_1_" gradientUnits="userSpaceOnUse" x1="-49.384" y1="650.1816" x2="-48.4402" y2="650.1816" gradientTransform="matrix(511.808 0 0 -179.2462 25293.3711 116793.6172)">
		<stop  offset="0" style="stop-color:#FFA588"/>
		<stop  offset="0.271" style="stop-color:#FCB371"/>
		<stop  offset="0.8357" style="stop-color:#F4D837"/>
		<stop  offset="1" style="stop-color:#F1E425"/>
	</linearGradient>
	<path fill="url(#SVGID_1_)" d="M452.779,332.29c-12.996,0-25.244-4.878-34.456-13.723l-71.752-68.899
		c-7.22-6.933-11.95-15.587-13.643-25.007c-0.996-5.499-0.946-11.141,0.149-16.639h-21.213c-5.178,0-7.369,3.299-8.215,5.26
		c-0.847,1.96-1.743,5.786,1.941,9.324l31.021,29.788c7.221,6.933,11.95,15.587,13.644,25.006
		c1.594,8.702,0.498,17.691-3.037,26.012c-3.585,8.271-9.461,15.348-16.979,20.464c-8.166,5.498-17.826,8.415-28.033,8.415h-0.996
		c-12.995,0-25.245-4.878-34.457-13.723l-6.871-6.599c-3.286,4.639-7.369,8.655-12.149,11.858
		c-8.166,5.498-17.826,8.415-28.033,8.415c-12.996,0-25.245-4.878-34.457-13.722L72.71,210.46c-1.693-1.625-3.934-2.486-6.273-2.486
		c-5.179,0-7.37,3.299-8.216,5.26c-0.847,1.96-1.743,5.786,1.941,9.324l31.021,29.788c7.22,6.933,11.951,15.587,13.644,25.006
		c1.593,8.702,0.497,17.691-3.038,26.012c-3.585,8.271-9.46,15.348-16.979,20.464c-8.166,5.498-17.826,8.415-28.034,8.415H42.585
		c-11.004,0-19.917-8.559-19.917-19.126c0-10.565,8.913-19.125,19.917-19.125h13.992c5.178,0,7.369-3.299,8.216-5.26
		c0.847-1.96,1.743-5.785-1.942-9.323l-30.972-29.74c-7.22-6.933-11.95-15.587-13.643-25.007
		c-1.594-8.702-0.498-17.691,3.038-26.011c3.584-8.271,9.459-15.348,16.979-20.464c8.166-5.499,17.875-8.416,28.083-8.416
		c12.995,0,25.245,4.877,34.456,13.723l112.532,108.058c1.693,1.626,3.933,2.487,6.274,2.487c5.179,0,7.369-3.299,8.215-5.26
		c0.847-1.96,1.743-5.785-1.892-9.275l-80.266-77.076c-7.767-7.459-7.767-19.556,0-27.063c7.768-7.506,20.366-7.458,28.183,0
		l80.216,77.028c0.05,0.048,0.05,0.048,0.1,0.096l40.682,39.063c1.692,1.626,3.933,2.487,6.273,2.487h0.996
		c5.179,0,7.369-3.299,8.216-5.26c0.847-1.96,1.742-5.785-1.942-9.323l-30.971-29.788c-7.22-6.933-11.951-15.587-13.644-25.007
		c-1.593-8.702-0.498-17.691,3.038-26.011c3.585-8.271,9.46-15.348,16.979-20.464c8.166-5.499,17.876-8.416,28.083-8.416h81.113
		c11.004,0,19.917,8.559,19.917,19.126s-8.913,19.125-19.917,19.125h-11.95c-5.179,0-7.37,3.299-8.217,5.26
		c-0.846,1.96-1.742,5.786,1.942,9.324l71.752,68.898c1.692,1.626,3.934,2.487,6.273,2.487c4.531,0,8.216-3.538,8.216-7.89
		c0-10.566,8.913-19.125,19.918-19.125c11.004,0,19.917,8.559,19.917,19.125C500.879,311.586,479.269,332.29,452.779,332.29
		L452.779,332.29z"/>
	<path fill="#FFFFFF" d="M452.779,315.556c-8.364,0-16.231-3.108-22.158-8.798l-71.751-68.9c-9.112-8.75-11.701-21.325-6.771-32.752
		c2.539-5.833,6.672-10.567,11.8-13.771h-52.033c-10.854,0-20.166,5.977-24.348,15.587c-4.184,9.611-1.942,20.178,5.726,27.541
		l31.021,29.789c9.112,8.748,11.7,21.324,6.771,32.752c-4.93,11.428-16.033,18.552-28.93,18.552h-0.996
		c-8.365,0-16.232-3.108-22.157-8.798l-28.631-27.493c1.295,5.786,0.697,11.905-1.792,17.739
		c-4.929,11.428-16.033,18.552-28.93,18.552c-8.365,0-16.232-3.108-22.158-8.798L84.909,198.698
		c-4.98-4.781-11.602-7.411-18.623-7.411c-10.855,0-20.167,5.977-24.35,15.587c-4.132,9.61-1.941,20.177,5.727,27.541l31.02,29.788
		c9.112,8.75,11.702,21.325,6.773,32.753c-4.93,11.428-16.034,18.552-28.93,18.552H42.585c-1.394,0-2.49-1.053-2.49-2.392
		s1.096-2.391,2.49-2.391h13.992c10.855,0,20.167-5.977,24.349-15.587c4.183-9.61,1.942-20.178-5.726-27.54L44.178,237.81
		c-9.112-8.702-11.702-21.277-6.772-32.704c4.929-11.476,15.983-18.6,28.93-18.6c8.365,0,16.232,3.108,22.157,8.798l112.532,108.06
		c4.979,4.781,11.602,7.41,18.623,7.41c10.855,0,20.166-5.977,24.349-15.587c4.132-9.61,1.991-20.13-5.677-27.492l-80.316-77.077
		c-0.996-0.957-0.996-2.438,0-3.395c0.996-0.957,2.54-0.957,3.535,0l80.217,77.029l0.05,0.047l40.68,39.064
		c4.98,4.781,11.603,7.41,18.623,7.41h0.996c10.854,0,20.166-5.977,24.349-15.587c4.133-9.61,1.941-20.178-5.727-27.54
		l-31.021-29.789c-9.111-8.75-11.701-21.325-6.772-32.752c4.931-11.428,16.033-18.552,28.93-18.552h81.113
		c1.394,0,2.489,1.051,2.489,2.391c0,1.339-1.096,2.391-2.489,2.391h-11.95c-10.854,0-20.166,5.977-24.35,15.587
		c-4.132,9.611-1.941,20.178,5.728,27.541l71.751,68.9c4.979,4.781,11.602,7.41,18.622,7.41c14.142,0,25.644-11.044,25.644-24.624
		c0-1.338,1.096-2.39,2.49-2.39c1.394,0,2.489,1.052,2.489,2.39C483.451,302.359,469.708,315.556,452.779,315.556L452.779,315.556z"
		/>
</g>
</svg>
