<svg xmlns="http://www.w3.org/2000/svg" viewBox="0 0 256 256">
<rect width="256" height="256" rx="60" fill="#2c8ebb" />
<g transform="scale(2)">
<path d="M99.24 80.71C94.9 80.76 91.1 83 87.89 85c-6 3.71-9 3.47-9 3.47l-.1-.17c-.41-.67 1.92-6.68-.69-13.84-2.82-7.83-7.3-9.72-6.94-10.32 1.53-2.59 5.36-6.7 6.89-14.36.91-4.64.67-12.28-1.39-16.28-.38-.74-3.78 1.24-3.78 1.24s-3.18-7.09-4.07-7.66c-2.87-1.84-6 7.61-6 7.61a14 14 0 00-11.71 4.5 9.64 9.64 0 01-3.85 2.27c-.41.14-.91.12-2.15 3.47-1.9 5.07 3.24 10.81 3.24 10.81s-6.13 4.33-8.4 9.72a24.78 24.78 0 00-1.75 11.68s-4.36 3.78-4.64 7.68a12.87 12.87 0 001.77 7.83 1.94 1.94 0 002.63.91s-2.9 3.38-.19 4.81c2.47 1.29 6.63 2 8.83-.19 1.6-1.6 1.92-5.17 2.51-6.63.14-.34.62.57 1.08 1a10 10 0 001.36 1s-3.9 1.68-2.3 5.51c.53 1.27 2.42 2.08 5.51 2.06 1.15 0 13.76-.72 17.12-1.53a4.33 4.33 0 002.61-1.46 63 63 0 0015.49-7c4.74-3.09 6.68-3.93 10.51-4.84 3.16-.75 2.95-5.65-1.24-5.58z" fill="#fff" />
</g>
</svg>